HIERARCHY
ROOT Pelvis
{
	OFFSET 0.000000 0.000000 0.000000
	CHANNELS 6 Xposition Yposition Zposition Xrotation Yrotation Zrotation
	JOINT LeftUpLeg_virtual
	{
		OFFSET 0.000000 0.000000 0.000000
		CHANNELS 3 Xrotation Yrotation Zrotation
		JOINT LeftUpLeg
		{
			OFFSET 8.479700 -4.795502 -0.379100
			CHANNELS 3 Xrotation Yrotation Zrotation
			JOINT LeftLeg
			{
				OFFSET 0.024144 -32.555107 0.112900
				CHANNELS 3 Xrotation Yrotation Zrotation
				JOINT LeftFoot
				{
					OFFSET -0.024144 -32.638630 -3.012600
					CHANNELS 3 Xrotation Yrotation Zrotation
					JOINT LeftToeBase
					{
						OFFSET 0.970200 -13.225400 11.864200
						CHANNELS 3 Xrotation Yrotation Zrotation
						End Site
						{
							OFFSET 0 0 0
						}
					}
				}
			}
		}
	}
	JOINT RightUpLeg_virtual
	{
		OFFSET 0.000000 0.000000 0.000000
		CHANNELS 3 Xrotation Yrotation Zrotation
		JOINT RightUpLeg
		{
			OFFSET -8.479700 -4.795502 -0.379100
			CHANNELS 3 Xrotation Yrotation Zrotation
			JOINT RightLeg
			{
				OFFSET -0.023144 -32.555092 0.112900
				CHANNELS 3 Xrotation Yrotation Zrotation
				JOINT RightFoot
				{
					OFFSET 0.023144 -32.638641 -3.012700
					CHANNELS 3 Xrotation Yrotation Zrotation
					JOINT RightToeBase
					{
						OFFSET -0.970200 -13.225400 11.864200
						CHANNELS 3 Xrotation Yrotation Zrotation
						End Site
						{
							OFFSET 0 0 0
						}
					}
				}
			}
		}
	}
	JOINT Hips_virtual
	{
		OFFSET 0.000000 0.000000 0.000000
		CHANNELS 3 Xrotation Yrotation Zrotation
		JOINT Hips
		{
			OFFSET -0.000000 -0.000000 -0.000000
			CHANNELS 3 Xrotation Yrotation Zrotation
			JOINT Spine
			{
				OFFSET 0.000000 7.722000 1.166200
				CHANNELS 3 Xrotation Yrotation Zrotation
				JOINT Spine1
				{
					OFFSET 0.000000 12.024101 0.248800
					CHANNELS 3 Xrotation Yrotation Zrotation
					JOINT Spine2
					{
						OFFSET 0.000000 11.502998 -0.491200
						CHANNELS 3 Xrotation Yrotation Zrotation
						JOINT Neck_virtual
						{
							OFFSET 0.000000 0.000000 0.000000
							CHANNELS 3 Xrotation Yrotation Zrotation
							JOINT Neck
							{
								OFFSET 0.000000 18.430702 -3.123100
								CHANNELS 3 Xrotation Yrotation Zrotation
								JOINT Head
								{
									OFFSET 0.000000 9.051102 1.034000
									CHANNELS 3 Xrotation Yrotation Zrotation
									End Site
									{
										OFFSET 0 0 0
									}
								}
							}
						}
						JOINT LeftShoulder_virtual
						{
							OFFSET 0.000000 0.000000 0.000000
							CHANNELS 3 Xrotation Yrotation Zrotation
							JOINT LeftShoulder
							{
								OFFSET 6.197800 13.665199 -4.064700
								CHANNELS 3 Xrotation Yrotation Zrotation
								JOINT LeftArm
								{
									OFFSET 7.778100 -0.187103 -1.709300
									CHANNELS 3 Xrotation Yrotation Zrotation
									JOINT LeftForeArm
									{
										OFFSET 22.049376 0.000000 0.000000
										CHANNELS 3 Xrotation Yrotation Zrotation
										JOINT LeftHand
										{
											OFFSET 23.009392 0.000000 0.000000
											CHANNELS 3 Xrotation Yrotation Zrotation
											End Site
											{
												OFFSET 0 0 0
											}
										}
									}
								}
							}
						}
						JOINT RightShoulder_virtual
						{
							OFFSET 0.000000 0.000000 0.000000
							CHANNELS 3 Xrotation Yrotation Zrotation
							JOINT RightShoulder
							{
								OFFSET -6.197800 13.665199 -4.064700
								CHANNELS 3 Xrotation Yrotation Zrotation
								JOINT RightArm
								{
									OFFSET -7.778100 -0.187103 -1.709300
									CHANNELS 3 Xrotation Yrotation Zrotation
									JOINT RightForeArm
									{
										OFFSET -22.049376 0.000000 0.000000
										CHANNELS 3 Xrotation Yrotation Zrotation
										JOINT RightHand
										{
											OFFSET -23.009392 0.000000 0.000000
											CHANNELS 3 Xrotation Yrotation Zrotation
											End Site
											{
												OFFSET 0 0 0
											}
										}
									}
								}
							}
						}
					}
				}
			}
		}
	}
}
MOTION
Frames: 13
Frame Time: 0.03333333
2.777463 69.273735 13.050804 0.000000 0.000000 0.000000 0.268306 -30.142895 -2.486755 -45.868238 1.333652 20.282255 67.472645 1.108350 0.382799 -22.426103 -7.991420 -10.912697 0.000000 0.000000 0.000000 0.268306 -30.142895 -2.486755 -15.989037 -14.706109 -29.013462 51.569868 -7.156986 -7.633518 -11.543983 -8.367434 21.763322 0.000000 0.000000 0.000000 0.268306 -30.142895 -2.486755 0.000000 0.000000 0.000000 11.988865 9.261040 -5.492354 2.723683 1.552888 -1.611383 0.000000 0.000000 0.000000 2.746777 1.530466 -1.591250 -10.034647 9.444447 7.085844 0.000000 0.000000 0.000000 2.746777 1.530466 -1.591250 0.920476 1.300386 -6.093181 -59.606398 1.454192 -47.058812 -179.999909 -70.850215 -179.999923 0.000000 0.000000 0.000000 2.746777 1.530466 -1.591250 2.590447 21.406218 -4.318642 -39.313476 17.241004 46.560406 -179.999964 66.687522 179.999964 0.000000 0.000000 0.000000 
2.728339 69.111282 12.241766 0.000000 0.000000 0.000000 -0.354811 -31.907037 -2.406847 -45.446368 1.494528 21.127677 67.446718 1.643497 -0.081838 -21.981705 -7.789143 -11.303669 0.000000 0.000000 0.000000 -0.354811 -31.907037 -2.406847 -16.633555 -14.203450 -29.401379 52.696426 -7.337505 -6.992590 -12.892901 -10.433843 22.640890 0.000000 0.000000 0.000000 -0.354811 -31.907037 -2.406847 0.000000 0.000001 0.000000 12.029959 9.040080 -5.281246 2.734888 1.491814 -1.567837 0.000000 0.000000 0.000000 2.758107 1.469814 -1.547380 -9.735268 9.809005 6.855224 0.000000 0.000000 0.000000 2.758107 1.469814 -1.547380 0.919438 1.163409 -5.967905 -60.124455 1.960625 -46.784163 -179.999991 -71.146809 179.999978 0.000000 0.000000 0.000000 2.758107 1.469814 -1.547380 2.580092 21.227866 -4.233256 -40.248860 17.716344 48.393905 -179.999978 67.351765 179.999964 0.000000 0.000000 0.000000 
2.645375 68.962944 11.388907 0.000000 0.000000 0.000000 -0.895325 -33.469689 -2.272973 -45.121743 1.667833 21.914945 67.313850 2.098691 -0.512809 -21.409855 -7.633617 -11.620436 0.000000 0.000000 0.000000 -0.895325 -33.469689 -2.272973 -17.058403 -13.735594 -29.220140 53.400321 -7.502661 -6.974874 -14.357401 -12.835831 23.670198 0.000000 0.000000 0.000000 -0.895325 -33.469689 -2.272973 0.000000 0.000002 0.000000 12.028522 8.799767 -5.083350 2.734733 1.427243 -1.530578 0.000000 0.000000 0.000000 2.757623 1.406163 -1.509497 -9.369960 10.141566 6.579430 0.000000 0.000000 0.000000 2.757623 1.406163 -1.509497 0.848220 1.234093 -5.801386 -60.427387 2.491306 -46.713067 -179.999896 -71.598995 -179.999909 0.000000 0.000000 0.000000 2.757623 1.406163 -1.509497 2.551276 20.915494 -4.132410 -41.238322 18.236696 50.341407 179.999964 67.992272 -179.999978 0.000000 0.000000 0.000000 
2.535033 68.828522 10.488233 0.000000 0.000000 0.000000 -1.375727 -34.839040 -2.086096 -44.870337 1.837000 22.619930 67.058060 2.490896 -0.899312 -20.700374 -7.524782 -11.883275 0.000000 0.000000 0.000000 -1.375727 -34.839040 -2.086096 -17.483625 -13.321258 -28.962761 53.967179 -7.712311 -7.084526 -16.052174 -14.702167 24.423701 0.000000 0.000000 0.000000 -1.375727 -34.839040 -2.086096 0.000000 0.000003 0.000000 12.013848 8.551133 -4.891850 2.730772 1.361152 -1.496503 0.000000 0.000000 0.000000 2.753146 1.341174 -1.474810 -8.933131 10.442602 6.282899 0.000000 0.000000 0.000000 2.753146 1.341174 -1.474810 0.768325 1.378895 -5.675012 -60.613940 2.997520 -46.738008 -179.999718 -72.073440 -179.999704 0.000000 0.000000 0.000000 2.753146 1.341174 -1.474810 2.521652 20.583217 -4.040480 -42.285397 18.731710 52.282127 -179.999991 68.588671 179.999991 0.000000 0.000000 0.000000 
2.408988 68.712204 9.534023 0.000000 0.000000 0.000000 -1.793548 -36.033592 -1.827924 -44.674536 1.993814 23.217355 66.645899 2.835386 -1.240764 -19.839671 -7.467035 -12.109820 0.000000 0.000000 0.000000 -1.793548 -36.033592 -1.827924 -18.145625 -12.982279 -29.059976 54.635619 -8.047869 -6.950890 -18.351407 -15.041835 24.175267 0.000000 0.000000 0.000000 -1.793548 -36.033592 -1.827924 0.000000 0.000000 0.000000 12.002925 8.291759 -4.715699 2.726340 1.293487 -1.468239 0.000000 0.000000 0.000000 2.748194 1.274537 -1.446135 -8.423905 10.713532 6.026259 0.000000 0.000000 0.000000 2.748194 1.274537 -1.446135 0.723368 1.519091 -5.655417 -60.780166 3.446313 -46.778425 -179.999855 -72.457830 -179.999841 0.000000 0.000000 0.000000 2.748194 1.274537 -1.446135 2.511053 20.376138 -3.971665 -43.426971 19.111103 54.090587 -179.999923 69.116057 179.999909 0.000000 0.000000 0.000000 
2.267479 68.629921 8.545474 0.000000 0.000000 0.000000 -2.172785 -37.010384 -1.582776 -44.525026 2.124585 23.744398 66.076343 3.143339 -1.521889 -18.832385 -7.463234 -12.264685 0.000000 0.000000 0.000000 -2.172785 -37.010384 -1.582776 -19.045759 -12.635654 -29.375967 55.529455 -8.293297 -6.767493 -20.270518 -14.449649 23.818977 0.000000 0.000000 0.000000 -2.172785 -37.010384 -1.582776 0.000000 -0.000001 0.000000 11.996516 8.013397 -4.461462 2.724130 1.219608 -1.422287 0.000000 0.000000 0.000000 2.745502 1.201865 -1.399951 -7.863654 10.973599 5.692431 0.000000 0.000000 0.000000 2.745502 1.201865 -1.399951 0.705877 1.659753 -5.723521 -60.806237 3.904434 -46.886599 -179.999991 -72.754328 179.999991 0.000000 0.000000 0.000000 2.745502 1.201865 -1.399951 2.512059 20.192005 -4.001456 -44.537710 19.415805 55.831619 179.999950 69.578611 -179.999964 0.000000 0.000000 0.000000 
2.119748 68.602783 7.549868 0.000000 0.000000 0.000000 -2.537852 -37.734278 -1.455807 -44.402940 2.206169 24.242554 65.347391 3.420762 -1.717103 -17.699330 -7.514173 -12.328657 0.000000 0.000000 0.000000 -2.537852 -37.734278 -1.455807 -19.908693 -12.499451 -29.811395 56.279471 -8.578413 -6.509445 -21.692389 -13.146512 23.844296 0.000000 0.000000 0.000000 -2.537852 -37.734278 -1.455807 0.000000 -0.000002 0.000000 11.996320 7.697417 -4.012098 2.728192 1.133296 -1.333675 0.000000 0.000000 0.000000 2.749306 1.117036 -1.311337 -7.266783 11.252496 5.152421 0.000000 0.000000 0.000000 2.749306 1.117036 -1.311337 0.720754 1.794960 -5.890581 -60.570118 4.436044 -47.102193 179.999896 -72.916593 179.999909 0.000000 0.000000 0.000000 2.749306 1.117036 -1.311337 2.524405 19.980614 -4.230784 -45.510664 19.661225 57.563284 -180.000005 69.969578 -180.000005 0.000000 0.000000 0.000000 
1.966817 68.631729 6.564207 0.000000 0.000000 0.000000 -2.886700 -38.176745 -1.421989 -44.305982 2.241500 24.673628 64.465347 3.705997 -1.836748 -16.425749 -7.649001 -12.319822 0.000000 0.000000 0.000000 -2.886700 -38.176745 -1.421989 -20.657118 -12.529705 -30.186482 56.911756 -8.904120 -6.209675 -22.791426 -11.666949 23.901743 0.000000 0.000000 0.000000 -2.886700 -38.176745 -1.421989 0.000000 -0.000001 0.000000 12.007901 7.360109 -3.399126 2.737872 1.038790 -1.211377 0.000000 0.000000 0.000000 2.758771 1.024572 -1.189282 -6.648065 11.517202 4.500684 0.000000 0.000000 0.000000 2.758771 1.024572 -1.189282 0.774337 1.877367 -6.132327 -60.171330 5.006965 -47.392596 179.999841 -72.979806 179.999855 0.000000 0.000000 0.000000 2.758771 1.024572 -1.189282 2.540913 19.732056 -4.595723 -46.360326 19.862830 59.223682 -179.999923 70.298561 179.999896 0.000000 0.000000 0.000000 
1.814047 68.729919 5.618269 0.000000 0.000000 0.000000 -3.249454 -38.228268 -1.535951 -44.253612 2.137833 25.109843 63.380426 3.832948 -1.918244 -14.567608 -7.809044 -12.621239 0.000000 0.000000 0.000000 -3.249454 -38.228268 -1.535951 -21.141729 -12.759811 -30.270538 57.415513 -9.301901 -5.911565 -23.479578 -10.674725 23.800843 0.000000 0.000000 0.000000 -3.249454 -38.228268 -1.535951 0.000000 -0.000003 0.000000 12.067547 6.982682 -2.555538 2.762015 0.931093 -1.042184 0.000000 0.000000 0.000000 2.782712 0.919981 -1.020690 -6.045157 11.748944 3.746933 0.000000 0.000000 0.000000 2.782712 0.919981 -1.020690 0.887038 1.821081 -6.441183 -59.658199 5.673435 -47.725178 -179.999745 -72.907925 -179.999732 0.000000 0.000000 0.000000 2.782712 0.919981 -1.020690 2.555746 19.402993 -5.121958 -47.064392 20.020565 60.797788 -179.999786 70.550458 179.999773 0.000000 0.000000 0.000000 
1.652399 68.864326 4.697459 0.000000 0.000000 0.000000 -3.551866 -38.094267 -1.632271 -44.252181 2.010967 25.433678 62.201788 3.906579 -1.944783 -12.545731 -8.038705 -12.840476 0.000000 0.000000 0.000000 -3.551866 -38.094267 -1.632271 -21.498758 -13.025656 -30.251147 57.831656 -9.670442 -5.593650 -23.966519 -9.907485 23.718233 0.000000 0.000000 0.000000 -3.551866 -38.094267 -1.632271 0.000000 0.000000 0.000000 12.090353 6.642424 -1.691855 2.777067 0.831481 -0.869187 0.000000 0.000000 0.000000 2.797522 0.823753 -0.848376 -5.406928 11.936485 3.018487 0.000000 0.000000 0.000000 2.797522 0.823753 -0.848376 1.015789 1.734050 -6.777656 -59.062804 6.224850 -48.133152 -179.999704 -72.867129 -179.999691 0.000000 0.000000 0.000000 2.797522 0.823753 -0.848376 2.560924 19.044642 -5.640544 -47.617019 20.209263 62.203933 -179.999991 70.794153 -179.999991 0.000000 0.000000 0.000000 
1.470614 69.009506 3.794270 0.000000 0.000000 0.000000 -3.724477 -37.911306 -1.550481 -44.336059 1.906058 25.578990 60.950354 3.864229 -1.902942 -10.377101 -8.339629 -12.973086 0.000000 0.000000 0.000000 -3.724477 -37.911306 -1.550481 -21.778033 -13.149589 -30.261269 58.156691 -9.883368 -5.205721 -24.374327 -9.340110 23.854483 0.000000 0.000000 0.000000 -3.724477 -37.911306 -1.550481 0.000000 0.000001 0.000000 11.984094 6.406790 -1.008672 2.757950 0.759649 -0.733175 0.000000 0.000000 0.000000 2.778169 0.754779 -0.712767 -4.659180 12.057658 2.444884 0.000000 0.000000 0.000000 2.778169 0.754779 -0.712767 1.131834 1.689431 -7.109514 -58.423703 6.433936 -48.646171 -179.999896 -73.053695 -179.999896 0.000000 0.000000 0.000000 2.778169 0.754779 -0.712767 2.548405 18.665608 -5.977052 -47.962528 20.529529 63.341576 -179.999923 71.123593 179.999896 0.000000 0.000000 0.000000 
1.279762 69.167267 2.915482 0.000000 0.000000 0.000000 -3.800655 -37.770157 -1.324725 -44.476396 1.879174 25.602312 59.769776 3.786150 -1.827293 -8.178305 -8.707462 -12.906367 0.000000 0.000000 0.000000 -3.800655 -37.770157 -1.324725 -22.092114 -13.159513 -30.265043 58.441093 -9.877709 -4.859403 -24.695312 -9.049345 23.998184 0.000000 0.000000 0.000000 -3.800655 -37.770157 -1.324725 0.000000 0.000000 0.000000 11.818504 6.269408 -0.512212 2.721951 0.714489 -0.635726 0.000000 0.000000 0.000000 2.741942 0.711765 -0.615628 -3.915713 12.133560 2.031777 0.000000 0.000000 0.000000 2.741942 0.711765 -0.615628 1.219575 1.709481 -7.408399 -57.792423 6.411620 -49.203897 -179.999745 -73.336206 -179.999745 0.000000 0.000000 0.000000 2.741942 0.711765 -0.615628 2.534007 18.343899 -6.180941 -48.221457 20.907653 64.254042 -179.999896 71.448936 179.999923 0.000000 0.000000 0.000000 
1.083693 69.323425 2.057289 0.000000 0.000000 0.000000 -3.763659 -37.843554 -0.886739 -45.040914 1.701226 25.525040 59.344447 3.699237 -1.758400 -5.868901 -9.102071 -12.579723 0.000000 0.000000 0.000000 -3.763659 -37.843554 -0.886739 -22.715408 -13.010778 -30.303575 58.849702 -9.834942 -4.708823 -25.001909 -8.825861 23.964555 0.000000 0.000000 0.000000 -3.763659 -37.843554 -0.886739 0.000000 0.000002 0.000000 11.611113 6.277529 -0.331784 2.672645 0.709728 -0.605413 0.000000 0.000000 0.000000 2.692390 0.707508 -0.585588 -3.257641 12.167570 1.869598 0.000000 0.000000 0.000000 2.692390 0.707508 -0.585588 1.245592 1.868596 -7.630057 -57.238256 6.130692 -49.787083 179.999937 -73.687148 179.999950 0.000000 0.000000 0.000000 2.692390 0.707508 -0.585588 2.536901 18.208793 -6.200680 -48.492687 21.272756 64.876272 -179.999773 71.700061 179.999745 0.000000 0.000000 0.000000 
